<svg id="Layer_1" data-name="Layer 1" xmlns="http://www.w3.org/2000/svg" viewBox="0 0 190 100"><defs><style>.cls-1{fill:#e3ded4;}.cls-2{fill:#9b1c2c;}.cls-3{fill:#33335f;}.cls-4{fill:#fff;}</style></defs><title>flag</title><rect class="cls-1" width="190" height="100"/><rect class="cls-2" y="92.31" width="190" height="7.69"/><rect class="cls-1" y="84.62" width="190" height="7.69"/><rect class="cls-2" y="76.93" width="190" height="7.69"/><rect class="cls-1" y="69.24" width="190" height="7.69"/><rect class="cls-2" y="61.55" width="190" height="7.69"/><rect class="cls-1" y="53.86" width="190" height="7.69"/><rect class="cls-2" y="46.17" width="190" height="7.69"/><rect class="cls-1" y="38.48" width="190" height="7.69"/><rect class="cls-2" y="30.79" width="190" height="7.69"/><rect class="cls-1" y="23.1" width="190" height="7.69"/><rect class="cls-2" y="15.41" width="190" height="7.69"/><rect class="cls-1" y="7.72" width="190" height="7.69"/><rect class="cls-2" y="0.03" width="190" height="7.69"/><rect class="cls-3" width="76" height="54"/><g id="s18"><g id="s9"><g id="s5"><g id="s4"><path id="st" class="cls-4" d="M7.334,3.447l1.751,5.39L4.5,5.506h5.668L5.582,8.837Z"/><path class="cls-4" d="M7.334,13.876l1.751,5.39L4.5,15.935h5.668L5.582,19.266Z"/><path class="cls-4" d="M7.334,24.305,9.085,29.7,4.5,26.364h5.668L5.582,29.7Z"/><path class="cls-4" d="M7.334,34.734l1.751,5.39L4.5,36.793h5.668L5.582,40.124Z"/></g><path class="cls-4" d="M7.334,45.163l1.751,5.39L4.5,47.222h5.668L5.582,50.553Z"/></g><path class="cls-4" d="M13.467,8.661l1.752,5.391L10.633,10.72H16.3l-4.585,3.332Z"/><path class="cls-4" d="M13.467,19.09l1.752,5.391-4.586-3.332H16.3l-4.585,3.332Z"/><path class="cls-4" d="M13.467,29.519l1.752,5.391-4.586-3.332H16.3L11.716,34.91Z"/><path class="cls-4" d="M13.467,39.948l1.752,5.391-4.586-3.332H16.3l-4.585,3.332Z"/></g><path class="cls-4" d="M19.6,3.447l1.752,5.39L16.766,5.506h5.668L17.849,8.837Z"/><path class="cls-4" d="M19.6,13.876l1.752,5.39-4.586-3.331h5.668l-4.585,3.331Z"/><path class="cls-4" d="M19.6,24.305l1.752,5.39-4.586-3.331h5.668L17.849,29.7Z"/><path class="cls-4" d="M19.6,34.734l1.752,5.39-4.586-3.331h5.668l-4.585,3.331Z"/><path class="cls-4" d="M19.6,45.163l1.752,5.39-4.586-3.331h5.668l-4.585,3.331Z"/><path class="cls-4" d="M25.734,8.661l1.751,5.391L22.9,10.72h5.667l-4.585,3.332Z"/><path class="cls-4" d="M25.734,19.09l1.751,5.391L22.9,21.149h5.667l-4.585,3.332Z"/><path class="cls-4" d="M25.734,29.519l1.751,5.391L22.9,31.578h5.667L23.982,34.91Z"/><path class="cls-4" d="M25.734,39.948l1.751,5.391L22.9,42.007h5.667l-4.585,3.332Z"/></g><path class="cls-4" d="M31.867,3.447l1.751,5.39L29.033,5.506H34.7L30.115,8.837Z"/><path class="cls-4" d="M31.867,13.876l1.751,5.39-4.585-3.331H34.7l-4.586,3.331Z"/><path class="cls-4" d="M31.867,24.305l1.751,5.39-4.585-3.331H34.7L30.115,29.7Z"/><path class="cls-4" d="M31.867,34.734l1.751,5.39-4.585-3.331H34.7l-4.586,3.331Z"/><path class="cls-4" d="M31.867,45.163l1.751,5.39-4.585-3.331H34.7l-4.586,3.331Z"/><path class="cls-4" d="M38,8.661l1.751,5.391L35.166,10.72h5.668l-4.585,3.332Z"/><path class="cls-4" d="M38,19.09l1.751,5.391-4.585-3.332h5.668l-4.585,3.332Z"/><path class="cls-4" d="M38,29.519l1.751,5.391-4.585-3.332h5.668L36.249,34.91Z"/><path class="cls-4" d="M38,39.948l1.751,5.391-4.585-3.332h5.668l-4.585,3.332Z"/><path class="cls-4" d="M44.133,3.447l1.752,5.39L41.3,5.506h5.668L42.382,8.837Z"/><path class="cls-4" d="M44.133,13.876l1.752,5.39L41.3,15.935h5.668l-4.585,3.331Z"/><path class="cls-4" d="M44.133,24.305l1.752,5.39L41.3,26.364h5.668L42.382,29.7Z"/><path class="cls-4" d="M44.133,34.734l1.752,5.39L41.3,36.793h5.668l-4.585,3.331Z"/><path class="cls-4" d="M44.133,45.163l1.752,5.39L41.3,47.222h5.668l-4.585,3.331Z"/><path class="cls-4" d="M50.266,8.661l1.752,5.391L47.433,10.72H53.1l-4.585,3.332Z"/><path class="cls-4" d="M50.266,19.09l1.752,5.391-4.585-3.332H53.1l-4.585,3.332Z"/><path class="cls-4" d="M50.266,29.519l1.752,5.391-4.585-3.332H53.1L48.515,34.91Z"/><path class="cls-4" d="M50.266,39.948l1.752,5.391-4.585-3.332H53.1l-4.585,3.332Z"/><path class="cls-4" d="M56.4,3.447l1.751,5.39L53.566,5.506h5.668L54.648,8.837Z"/><path class="cls-4" d="M56.4,13.876l1.751,5.39-4.585-3.331h5.668l-4.586,3.331Z"/><path class="cls-4" d="M56.4,24.305l1.751,5.39-4.585-3.331h5.668L54.648,29.7Z"/><path class="cls-4" d="M56.4,34.734l1.751,5.39-4.585-3.331h5.668l-4.586,3.331Z"/><path class="cls-4" d="M56.4,45.163l1.751,5.39-4.585-3.331h5.668l-4.586,3.331Z"/><path class="cls-4" d="M62.533,8.661l1.751,5.391L59.7,10.72h5.668l-4.586,3.332Z"/><path class="cls-4" d="M62.533,19.09l1.751,5.391L59.7,21.149h5.668l-4.586,3.332Z"/><path class="cls-4" d="M62.533,29.519l1.751,5.391L59.7,31.578h5.668L60.781,34.91Z"/><path class="cls-4" d="M62.533,39.948l1.751,5.391L59.7,42.007h5.668l-4.586,3.332Z"/><path class="cls-4" d="M68.666,3.447l1.752,5.39L65.832,5.506H71.5L66.915,8.837Z"/><path class="cls-4" d="M68.666,13.876l1.752,5.39-4.586-3.331H71.5l-4.585,3.331Z"/><path class="cls-4" d="M68.666,24.305l1.752,5.39-4.586-3.331H71.5L66.915,29.7Z"/><path class="cls-4" d="M68.666,34.734l1.752,5.39-4.586-3.331H71.5l-4.585,3.331Z"/><path class="cls-4" d="M68.666,45.163l1.752,5.39-4.586-3.331H71.5l-4.585,3.331Z"/></svg>